<svg xmlns="http://www.w3.org/2000/svg" viewBox="0 0 24 24" fill="currentColor">
  <!-- straw -->
  <path d="M13 7.6 L17 2" fill="none" stroke="currentColor" stroke-width="1.8" stroke-linecap="round"/>
  <!-- lid dome -->
  <path d="M5.3 8 C5.3 4.9 18.7 4.9 18.7 8 Z"/>
  <!-- cup with tapioca pearls punched out -->
  <path fill-rule="evenodd" d="M6 8 L18 8 L16.3 20.5 Q16 22 14.3 22 L9.7 22 Q8 22 7.7 20.5 Z
    M9 18.6 a1 1 0 1 0 2 0 a1 1 0 1 0 -2 0
    M11.5 19.4 a1 1 0 1 0 2 0 a1 1 0 1 0 -2 0
    M14 18.6 a1 1 0 1 0 2 0 a1 1 0 1 0 -2 0"/>
</svg>
